<svg version="1.1" id="Layer_1" xmlns="http://www.w3.org/2000/svg" xmlns:xlink="http://www.w3.org/1999/xlink" x="0px" y="0px"
	 width="100%" viewBox="0 0 848 1024" enable-background="new 0 0 848 1024" xml:space="preserve">
<path fill="#000000" opacity="1.000000" stroke="none" 
	d="
M628.714539,813.836914 
	C613.748169,821.015259 598.760193,827.651672 582.439209,828.423279 
	C570.782166,828.974426 560.299377,830.868286 551.416016,838.743774 
	C551.175903,838.956604 550.836914,839.133850 550.523315,839.176819 
	C541.440674,840.422302 538.352173,847.151550 535.247742,854.651550 
	C524.440063,880.762268 508.856171,904.335938 494.988007,928.818298 
	C489.651306,938.239624 484.166534,947.577515 478.696350,956.922485 
	C477.779480,958.488892 476.777832,960.087219 475.493073,961.340515 
	C472.360016,964.396973 468.716553,964.956116 465.097961,962.300232 
	C461.403778,959.588928 461.063202,956.063293 463.334473,952.167969 
	C471.809570,937.632385 480.296906,923.103821 488.725464,908.541321 
	C500.993835,887.344543 513.170288,866.104614 523.195129,843.703003 
	C525.073608,839.505371 524.405884,837.168640 521.096497,833.852478 
	C508.879547,821.610718 494.404877,820.556763 478.611267,823.612183 
	C465.851135,826.080811 452.894287,827.270325 439.933502,828.003052 
	C428.426086,828.653503 416.906067,828.109619 405.801666,824.629211 
	C386.643677,818.624573 375.262878,804.605225 367.779205,786.822388 
	C361.503204,771.909180 359.037598,756.136292 357.951294,740.133118 
	C357.470123,733.044861 363.804932,728.500671 370.481598,731.461182 
	C384.967560,737.884399 400.203552,741.227966 415.758179,743.232056 
	C427.963776,744.804565 440.250122,745.644958 452.431824,747.583740 
	C481.758545,752.251282 505.200775,775.925476 509.263367,805.491821 
	C509.477448,807.049927 509.664459,808.419800 511.182770,809.272095 
	C517.838806,813.008118 524.274109,817.104248 530.304810,821.670166 
	C532.820374,819.833923 532.917297,817.329041 533.584229,815.198181 
	C543.392700,783.859619 550.363831,751.865723 555.514832,719.458191 
	C556.698853,712.009033 556.279907,711.293091 549.246765,708.887268 
	C545.940002,707.756104 542.539856,706.891846 539.253967,705.707031 
	C530.857788,702.679871 522.824829,703.385864 514.534485,706.689880 
	C498.353699,713.138489 481.540771,717.373413 464.039886,717.762939 
	C446.606476,718.150940 429.471100,716.439880 413.466278,708.527893 
	C398.048859,700.906250 388.118164,688.118042 380.798981,673.240906 
	C375.394165,662.254883 380.579163,657.734802 389.724915,656.241394 
	C407.342499,653.364685 423.971924,646.406799 441.347046,642.616028 
	C470.569214,636.240540 518.892578,649.776306 535.640625,686.740295 
	C536.392029,688.398743 537.092957,690.091614 539.183472,690.635193 
	C545.280579,692.220398 551.356689,693.886169 557.674500,695.583008 
	C559.372559,692.452637 559.227966,689.054321 559.522461,685.875488 
	C561.768311,661.633179 562.521790,637.314392 561.513000,613.004028 
	C560.906738,598.393555 559.705444,583.768188 557.179932,569.317200 
	C556.776306,567.007446 557.175110,563.761230 553.707153,563.499939 
	C549.886963,563.212158 545.677002,561.417236 542.407410,565.041504 
	C538.391663,569.493042 534.434021,574.000000 530.549988,578.566895 
	C507.786682,605.332153 479.170044,615.765076 444.443787,610.028870 
	C423.670746,606.597412 405.482697,597.917969 389.256744,584.731506 
	C384.209808,580.629944 378.945862,576.831421 373.058105,573.963867 
	C369.675415,572.316467 367.065521,569.825562 368.043488,565.743347 
	C369.013153,561.695679 372.055573,559.820740 376.246674,559.851929 
	C380.927216,559.886719 384.942230,557.932190 388.881104,555.651428 
	C407.034088,545.139954 424.629547,533.545715 444.420624,526.154724 
	C454.870605,522.252136 465.570740,518.691833 476.750549,518.134705 
	C499.509064,517.000427 519.700012,523.820801 535.243774,540.896729 
	C540.353760,546.510437 545.025574,549.886597 552.942871,547.456177 
	C551.899048,539.141907 549.381104,530.741272 546.916077,522.364441 
	C537.692261,491.019379 523.973083,461.667725 507.424774,433.555054 
	C505.269623,429.893799 502.864685,428.826630 498.912750,429.548065 
	C487.092712,431.705750 477.209839,436.674805 469.008270,445.975830 
	C455.361633,461.451965 441.439178,476.745117 424.512115,488.926147 
	C410.257202,499.184204 393.612793,502.618591 377.031006,506.228851 
	C358.971039,510.160980 340.615417,512.415771 322.372711,515.308044 
	C318.766174,515.879822 315.234283,516.909973 311.653442,517.659241 
	C303.006989,519.468445 296.611755,513.286743 298.030243,504.475739 
	C298.971924,498.626465 301.192993,493.196198 304.452972,488.330597 
	C321.368530,463.083618 340.828156,440.130981 366.602783,423.470581 
	C399.349548,402.303467 433.521698,399.956390 468.544342,417.662231 
	C473.243896,420.038116 477.272186,420.696228 482.166656,418.761536 
	C486.152985,417.185822 490.480103,416.472198 494.675964,415.371063 
	C495.284424,413.145538 493.663055,411.891602 492.708130,410.468842 
	C474.195709,382.886810 453.591431,356.934326 431.448242,332.196045 
	C420.699402,320.187469 417.418274,320.216309 400.643890,322.460968 
	C386.316742,324.378174 376.515106,332.497192 366.437164,341.296967 
	C352.129578,353.789978 337.460754,365.859650 321.188385,375.806274 
	C304.466766,386.027588 286.120728,390.693542 266.756073,392.359833 
	C248.154251,393.960449 229.473312,393.849030 210.888199,395.308563 
	C203.513550,395.887695 198.598251,388.498901 201.604309,382.363403 
	C202.552368,380.428375 203.243027,378.299561 204.506226,376.596771 
	C223.285416,351.282684 244.966125,329.674133 276.231110,320.152863 
	C306.320892,310.989502 336.703217,307.200775 367.810028,314.318756 
	C368.935028,314.576202 370.189148,314.933929 371.253784,314.687134 
	C381.389038,312.337341 391.496307,309.866852 402.321289,307.260162 
	C392.221100,299.236176 381.749451,293.137421 371.072235,287.424286 
	C353.834808,278.200928 335.680389,271.184052 317.016296,265.390564 
	C311.872101,263.793762 306.772675,264.595215 301.657837,264.472626 
	C267.876953,263.662903 239.535751,250.132950 214.789520,227.849854 
	C202.769409,217.026154 194.465927,203.208252 184.232346,190.953018 
	C176.226685,181.365845 167.999222,171.936829 159.424606,162.858521 
	C148.280243,151.059555 156.794449,141.186646 168.121170,139.041153 
	C181.349991,136.535370 194.355194,138.449783 207.269104,141.142838 
	C262.080383,152.573151 296.039948,187.326508 315.561371,238.191803 
	C316.989624,241.913208 318.831329,245.478073 320.529480,249.092850 
	C321.363129,250.867340 322.856262,251.915466 324.736938,252.339676 
	C347.493408,257.472656 367.532104,268.823578 387.628876,279.978455 
	C396.182800,284.726349 404.449493,289.991608 413.255890,295.266846 
	C415.491547,288.388397 416.372101,281.528992 417.025665,274.621704 
	C417.153839,273.267212 416.421234,272.453094 415.409149,271.752991 
	C400.853241,261.684540 391.565094,247.247513 383.141357,232.227585 
	C376.363068,220.141617 370.527740,207.514145 367.923340,193.810608 
	C365.224121,179.607986 366.153961,165.214798 368.087982,151.015305 
	C371.350739,127.060181 371.939301,103.256821 366.308136,79.574783 
	C365.359741,75.586243 365.214935,71.788315 368.785431,69.121689 
	C372.347900,66.461060 376.201019,67.539940 379.596436,69.598328 
	C388.187225,74.806282 395.517242,81.661819 402.911621,88.356201 
	C428.849426,111.838646 445.708801,140.459839 450.965607,175.354156 
	C455.289368,204.055161 454.821838,232.685440 440.594574,258.617401 
	C432.457092,273.449585 432.212616,289.493378 427.898315,304.845978 
	C427.275085,307.063782 428.047058,308.386200 429.480530,309.631256 
	C458.470886,334.811340 479.806335,366.333405 502.021088,397.128601 
	C502.495026,397.785583 503.104309,398.345032 503.997742,399.334656 
	C505.699005,392.532654 506.024658,387.063385 501.915344,380.759430 
	C489.491608,361.700470 482.675140,340.521332 482.833649,317.604736 
	C482.925262,304.360748 487.032043,291.717560 490.631653,279.064880 
	C496.981415,256.745544 502.361420,234.282013 500.640778,210.767639 
	C500.335999,206.602783 501.625824,203.041580 506.032074,201.709335 
	C510.827118,200.259521 514.564758,202.296539 517.274902,206.138397 
	C526.313660,218.951843 534.581421,232.212753 541.151184,246.513275 
	C555.985657,278.803650 555.424561,311.631805 545.009033,344.880585 
	C542.173584,353.931824 539.330566,362.980927 536.552979,372.049927 
	C534.754883,377.920807 531.528809,382.916962 527.333130,387.302551 
	C523.284790,391.534088 520.730103,396.375793 520.166382,402.294617 
	C519.788696,406.259857 518.927551,410.177002 518.470032,414.137268 
	C518.026733,417.974854 518.367798,421.549683 520.550903,425.116760 
	C540.679443,458.005280 555.763000,493.070374 565.455322,530.423340 
	C565.736450,531.506897 566.216003,532.538879 566.907898,534.426880 
	C569.479980,530.336914 571.661926,526.876953 573.833618,523.410583 
	C575.227539,521.185791 573.805664,519.194031 573.151306,517.236267 
	C569.761475,507.094513 567.083496,496.826782 566.588074,486.071075 
	C565.245850,456.928101 571.364868,430.281647 591.473511,407.863770 
	C605.206360,392.553894 616.903931,375.755646 625.862732,357.141479 
	C627.893433,352.922363 629.456177,348.546051 631.085022,344.176666 
	C632.449585,340.516327 635.417847,339.329468 639.110107,339.661194 
	C642.767639,339.989746 645.557068,341.560516 646.255249,345.444641 
	C650.375671,368.365112 654.703369,391.298248 654.820496,414.674835 
	C654.959412,442.400146 646.736938,467.725647 631.909424,491.110138 
	C620.970764,508.361420 607.649109,522.839600 588.651489,531.306702 
	C586.843323,532.112549 585.914612,533.611938 584.930725,535.184814 
	C580.035645,543.009705 576.930847,551.632690 573.755066,560.215271 
	C572.499023,563.609619 573.255188,567.111267 573.744019,570.586548 
	C577.298462,595.857239 579.155762,621.185608 577.612854,646.751892 
	C576.880981,658.879761 576.220154,671.009827 575.268372,683.123718 
	C575.181885,684.224487 574.882751,685.439880 576.384766,687.207458 
	C580.520813,679.608215 588.343750,674.799377 586.947388,664.296997 
	C584.611450,646.727966 586.743408,629.486694 593.253845,612.808228 
	C598.322632,599.822937 607.761963,590.198303 617.015869,580.387878 
	C633.481201,562.932251 650.046021,545.564758 664.227234,526.131531 
	C666.967712,522.376099 669.128723,518.195801 671.893860,514.460876 
	C674.495117,510.947266 677.757141,508.387268 682.578735,510.635437 
	C687.015686,512.704285 687.304688,516.211609 686.861389,520.652039 
	C685.440247,534.887451 684.519836,549.171997 683.305725,563.429077 
	C679.410950,609.164429 657.718018,644.627747 620.801147,671.190674 
	C617.448303,673.603149 613.736023,675.850952 609.845947,677.109314 
	C602.679504,679.427490 597.930176,683.899109 593.543457,689.954346 
	C587.436890,698.383667 581.464661,707.112610 572.849426,713.495544 
	C570.137634,715.504761 570.714111,719.262085 570.338623,722.314697 
	C566.693604,751.941650 561.063904,781.152161 552.167297,809.681519 
	C550.794739,814.083130 549.175598,818.407959 548.074219,822.977295 
	C553.641724,818.810059 558.022949,815.134888 559.364929,806.750427 
	C563.644165,780.014160 576.680664,757.738831 598.536499,741.044312 
	C612.797241,730.151245 629.537903,725.276917 646.450134,720.699646 
	C661.716980,716.567749 677.109985,712.782166 690.452454,703.613831 
	C694.084167,701.118225 698.504517,700.172607 702.104980,703.124207 
	C705.662598,706.040588 705.092529,710.531311 703.311157,714.235107 
	C692.274353,737.182068 681.953003,760.544678 666.287048,780.922668 
	C656.022827,794.274231 644.076050,805.726196 628.714539,813.836914 
M414.848328,477.347046 
	C432.961487,464.573792 446.690063,447.412689 461.733612,431.476898 
	C460.925507,430.623230 460.646149,430.192505 460.252472,429.940277 
	C459.415009,429.403625 458.555817,428.868256 457.640137,428.491028 
	C428.247406,416.380829 399.720398,417.890564 373.681458,436.481995 
	C354.537628,450.150482 338.000732,466.954834 324.467133,486.417297 
	C321.390503,490.841736 318.333130,495.337952 316.563538,500.998260 
	C318.173248,500.887909 319.323486,500.895355 320.444885,500.719299 
	C337.522614,498.037689 354.668640,495.714661 371.649719,492.516663 
	C386.508179,489.718475 401.381653,486.505951 414.848328,477.347046 
M401.513245,233.007812 
	C406.406158,240.586334 412.002075,247.592514 418.312225,254.050690 
	C423.104675,258.955475 424.138214,258.812195 426.803772,252.626892 
	C436.761597,229.520401 439.190979,205.435104 435.582306,180.745911 
	C431.006409,149.439209 418.721283,122.020355 393.915222,101.230598 
	C391.224945,98.975922 388.667572,96.562614 385.180939,93.447777 
	C386.315002,102.070107 387.343597,109.345764 386.797729,116.645103 
	C385.508270,133.888077 383.829742,151.102402 382.594147,168.348755 
	C381.804840,179.365662 382.633179,190.249466 386.238495,200.865524 
	C390.007935,211.964890 394.917023,222.475357 401.513245,233.007812 
M485.744019,593.293030 
	C502.597717,586.626221 514.539795,573.957825 526.043274,560.647339 
	C528.579224,557.712952 528.425354,555.922546 526.022583,553.121155 
	C509.035645,533.315918 487.606262,528.674561 461.675842,536.001526 
	C438.374695,542.585510 418.100586,555.659729 397.392487,567.689758 
	C396.558014,568.174500 395.649475,568.748291 395.718140,570.643127 
	C402.035980,576.400391 409.466278,581.360596 417.456909,585.426575 
	C438.956146,596.366333 461.320160,600.627686 485.744019,593.293030 
M253.100021,237.394608 
	C268.613190,245.575211 285.113617,249.501755 302.812561,249.671051 
	C292.505371,195.460526 216.129242,139.632462 173.235352,154.300629 
	C173.197861,155.635513 174.213776,156.352661 174.991928,157.176346 
	C186.330627,169.178192 196.383423,182.257889 206.793579,195.039459 
	C219.985962,211.237076 233.744202,226.833481 253.100021,237.394608 
M377.495605,766.044067 
	C378.095673,768.292542 378.673035,770.547363 379.299225,772.788513 
	C387.177277,800.984863 404.377869,814.121460 433.595978,813.613586 
	C445.388702,813.408630 457.147919,812.130249 468.836639,810.308838 
	C476.810516,809.066162 484.853851,808.269470 492.805481,807.280945 
	C492.175781,787.268555 473.006500,765.881775 452.096771,762.417297 
	C436.364838,759.810730 420.436096,758.406860 404.613251,756.328430 
	C394.908081,755.053528 385.455658,752.512695 375.797516,749.596191 
	C375.588959,750.867004 375.259155,751.677673 375.365509,752.426392 
	C375.972290,756.698242 376.682983,760.955261 377.495605,766.044067 
M597.003174,508.486633 
	C600.975281,505.421204 604.606995,501.988220 607.757263,498.088562 
	C630.849792,469.502960 641.824768,437.045715 638.550659,400.208038 
	C637.838928,392.200928 636.861206,384.153229 634.495178,375.476929 
	C631.126709,380.658020 628.506775,385.251251 625.347717,389.437683 
	C617.024841,400.467255 608.461365,411.315155 600.005310,422.244415 
	C581.817444,445.751984 579.508179,472.424316 584.694824,500.465637 
	C585.513672,504.892609 586.811707,509.402039 589.388916,513.456421 
	C592.390442,512.352722 594.386047,510.587708 597.003174,508.486633 
M676.345825,733.947632 
	C677.386902,731.627319 679.123169,729.532104 679.072449,726.387451 
	C677.693237,726.688538 676.713989,726.785278 675.820801,727.115234 
	C666.301514,730.631775 656.572815,733.461853 646.712646,735.812744 
	C623.645447,741.312622 603.834656,751.815063 589.960938,771.839172 
	C581.951355,783.399536 576.356689,795.815002 575.328857,810.001770 
	C575.161682,812.309021 574.764954,814.842102 578.718506,814.323425 
	C601.538696,811.329285 622.237549,803.370728 639.441711,787.765869 
	C655.764954,772.959900 666.104492,753.900513 676.345825,733.947632 
M492.184570,698.635986 
	C501.092590,696.064697 509.883942,693.173828 518.378601,689.571289 
	C518.189697,686.221375 516.248535,684.238770 514.606384,682.254211 
	C497.254059,661.284668 473.958313,654.254944 448.085663,656.560974 
	C430.778687,658.103577 414.842194,666.682739 397.898468,669.669312 
	C397.195099,672.130676 398.525299,673.393921 399.321198,674.772034 
	C405.548706,685.555115 414.503723,693.311218 426.116852,697.664429 
	C447.688904,705.750732 469.525085,704.326050 492.184570,698.635986 
M265.422607,377.752930 
	C278.562714,376.410889 291.345184,373.724854 303.460266,368.211090 
	C321.925934,359.807037 336.984222,346.672089 352.056000,333.539917 
	C353.615601,332.181061 356.295044,331.137878 355.440399,328.570129 
	C354.631287,326.139343 351.923981,326.529572 349.814545,326.301422 
	C339.197235,325.153137 328.612518,325.138611 317.945618,326.140778 
	C295.012543,328.295410 273.591888,334.716492 254.214005,347.380981 
	C241.406967,355.751129 231.563828,367.057678 221.858246,379.724121 
	C236.692535,379.685242 250.619217,379.181885 265.422607,377.752930 
M502.275116,296.670135 
	C494.304932,325.217468 501.488190,350.821991 516.989319,375.974365 
	C520.871338,368.990692 522.866028,362.640015 525.030090,356.392426 
	C534.442017,329.220062 540.545349,301.684174 533.691467,272.800903 
	C530.483337,259.281708 525.258362,246.696533 516.543640,234.171066 
	C514.136230,256.096832 507.351746,275.751221 502.275116,296.670135 
M602.340820,649.588867 
	C602.670654,653.973267 601.515747,658.522095 603.580566,662.758545 
	C637.401428,651.944641 676.195374,582.078003 668.042419,546.516418 
	C655.159424,563.161987 640.175049,577.633484 626.007324,592.842957 
	C611.286255,608.646423 601.441101,626.312256 602.340820,649.588867 
z"/>
</svg>