<svg version="1.1" id="Layer_1" xmlns="http://www.w3.org/2000/svg" xmlns:xlink="http://www.w3.org/1999/xlink" x="0px" y="0px"
	 viewBox="0 0 1024 1024" enable-background="new 0 0 1024 1024" xml:space="preserve">
<path fill="white" opacity="1.000000" stroke="none" 
	d="
M394.700623,575.291382 
	C362.411865,541.533203 342.107727,501.884247 332.587646,456.628113 
	C331.863342,453.184845 330.403198,450.736267 327.610199,448.451447 
	C310.743042,434.653503 300.833466,416.595245 297.794098,395.239136 
	C292.077209,355.069580 307.512695,322.381805 334.935791,294.176575 
	C344.798798,284.032257 356.178925,275.382568 364.774445,264.004974 
	C367.884308,259.888550 370.732391,255.573502 373.671539,251.329391 
	C374.624420,249.953430 375.854950,249.204620 377.498016,249.698227 
	C379.067566,250.169754 379.320282,251.604218 379.198761,252.958801 
	C376.975677,277.737183 385.372406,300.900024 389.758179,324.716797 
	C398.906921,374.398926 382.412811,415.377441 345.482513,448.801025 
	C343.142029,450.919250 341.940582,452.693848 342.731567,456.026825 
	C352.156494,495.739349 370.394226,530.789734 397.853394,561.021790 
	C399.074402,562.366150 400.097656,563.890137 401.213043,565.330444 
	C401.619019,565.125244 402.024994,564.920044 402.430969,564.714844 
	C403.516022,555.396484 403.917999,545.930786 405.886780,536.803040 
	C407.694122,528.423828 405.280731,522.921936 400.062500,516.132507 
	C387.740234,500.099945 385.927216,481.096497 389.158478,461.433258 
	C393.412659,435.545074 407.758484,415.532379 425.734344,397.520569 
	C438.931854,384.296600 452.768616,371.814545 467.735016,360.613770 
	C469.059875,359.622223 470.445068,358.524109 471.980164,358.042542 
	C474.588776,357.224121 476.530792,358.316467 475.985657,361.246887 
	C473.010864,377.238007 477.438721,392.259186 481.648041,407.355469 
	C490.232635,438.143250 487.982483,467.848999 470.962555,495.345886 
	C459.395691,514.032959 442.521271,525.454468 420.088287,527.334595 
	C417.332306,527.565552 416.482147,528.495239 416.118988,531.131226 
	C414.233917,544.814331 412.830231,558.540466 411.752533,572.308167 
	C411.581543,574.492493 412.558777,575.711731 413.973358,576.972595 
	C432.628143,593.599609 453.438354,606.991821 475.663513,618.298523 
	C478.119995,619.548157 479.660278,619.054138 481.208221,617.061340 
	C486.826294,609.828552 492.473297,602.618042 498.141876,595.424744 
	C499.617157,593.552673 499.768494,591.657288 499.149353,589.353577 
	C488.398376,549.349609 499.251007,514.804199 526.025024,484.441254 
	C538.070435,470.781189 553.387695,461.199097 568.420959,451.294281 
	C574.832642,447.069916 580.789001,442.263275 586.118774,436.700806 
	C587.344910,435.421173 588.510803,433.588989 590.635071,434.116699 
	C593.209717,434.756317 593.683289,437.209869 593.826416,439.294891 
	C594.406982,447.757874 595.356445,456.152374 596.755127,464.530396 
	C600.042175,484.219971 603.005432,503.901520 602.436462,524.034363 
	C601.488464,557.582764 582.537537,585.012329 551.125732,596.194519 
	C539.282410,600.410522 526.973389,602.535706 514.285583,600.479248 
	C512.128601,600.129639 509.996857,599.861511 508.405731,602.026978 
	C502.806213,609.647522 497.147888,617.224854 491.213684,625.220337 
	C497.731567,629.518738 504.748779,631.691589 511.443207,634.375671 
	C537.103760,644.664124 563.449219,653.015869 589.735413,661.528015 
	C593.420410,662.721313 596.130859,662.363281 599.150940,659.561401 
	C605.737976,653.450195 612.710205,647.744141 619.673462,642.054199 
	C621.961792,640.184326 622.199219,638.460815 621.545837,635.628967 
	C615.085632,607.628296 616.169800,580.400940 631.014099,554.920044 
	C639.231018,540.815430 651.669067,530.616272 664.177002,520.622192 
	C678.752991,508.975708 693.698730,497.788055 705.500610,483.076721 
	C708.106079,479.828888 710.696838,480.094238 712.524841,483.801483 
	C724.579651,508.249268 736.255432,533.005310 734.143677,561.228210 
	C731.517944,596.320435 717.014893,624.705933 684.449219,641.208557 
	C669.212402,648.929810 652.520935,650.073975 635.675842,648.662537 
	C633.460754,648.476929 631.500488,648.170715 629.636597,649.896423 
	C623.304199,655.759216 616.865234,661.507019 609.937561,667.777954 
	C618.869507,670.893433 627.444275,673.823792 635.977417,676.870972 
	C674.537415,690.640198 711.906250,706.840149 745.175110,731.212524 
	C756.576782,739.565186 766.410095,749.438660 772.802490,762.298828 
	C773.542542,763.787659 774.275940,765.304688 774.773621,766.883972 
	C775.893127,770.436523 775.407837,773.553223 771.684204,775.321533 
	C768.082458,777.031921 764.029785,776.719177 762.330322,773.298950 
	C747.676514,743.808533 719.352905,731.009644 692.686340,716.628662 
	C657.057983,697.414612 618.301941,685.882202 580.060974,673.205933 
	C570.579651,670.063049 561.082886,666.956726 551.682129,663.585632 
	C547.806519,662.195740 544.810730,662.240295 542.030334,665.760803 
	C540.306885,667.943115 538.042175,669.863770 535.670227,671.338745 
	C526.261230,677.189514 521.270813,685.824341 516.704712,695.840454 
	C504.080933,723.531921 481.939667,741.613586 453.341980,750.976929 
	C409.489868,765.334717 369.212585,755.288757 331.811859,730.467712 
	C320.989502,723.285461 321.307770,722.313965 332.353027,715.923157 
	C341.999390,710.341675 349.214996,701.878357 357.506622,694.693970 
	C378.486450,676.515930 402.962036,666.038696 430.187683,661.697876 
	C459.633148,657.002991 488.581238,660.157043 517.204956,667.653931 
	C519.218384,668.181274 520.722839,667.752747 522.217285,666.431091 
	C525.437927,663.582703 528.726624,660.811279 532.300232,657.739563 
	C529.590576,655.294556 526.395264,654.764587 523.561462,653.697754 
	C493.867340,642.518921 465.021545,629.635803 438.576080,611.872742 
	C436.658234,610.584534 434.670929,610.036072 432.439606,610.418579 
	C423.208069,612.001221 413.903687,612.419922 404.564880,612.084351 
	C401.854156,611.986938 399.937408,613.026978 397.931488,614.811279 
	C363.370911,645.552734 303.531677,645.701416 276.167908,596.454651 
	C267.924225,581.618408 261.919250,565.582947 252.004959,551.627747 
	C250.021851,548.836426 251.898834,547.183533 254.780396,546.999939 
	C270.231628,546.015076 285.656189,545.163025 301.181458,546.185608 
	C338.886902,548.669067 368.795624,567.263123 395.151031,592.254089 
	C403.067596,599.760864 410.796509,600.894104 420.807892,599.216187 
	C411.827332,591.370117 402.804230,584.080627 394.700623,575.291382 
M342.902374,718.332397 
	C341.857513,719.378235 340.079742,719.705444 339.426697,721.449585 
	C400.227661,729.567688 460.062073,711.692383 506.718445,677.671387 
	C505.139587,677.186035 503.788666,676.639771 502.384644,676.358887 
	C482.415649,672.363342 462.267578,669.984436 441.899536,671.421875 
	C416.363373,673.224121 392.781281,681.014160 371.436798,695.436523 
	C361.465149,702.174316 353.433594,711.244019 342.902374,718.332397 
M471.092896,401.190430 
	C469.334747,393.076813 468.441406,384.856934 468.133057,376.473541 
	C446.901642,408.458344 415.813110,498.043121 419.253876,517.232971 
	C429.502563,516.487732 441.811493,510.946564 450.445709,503.075775 
	C468.306885,486.793945 474.780060,465.517670 476.660858,442.374908 
	C477.781403,428.586945 474.166840,415.319183 471.092896,401.190430 
M370.013519,281.563690 
	C369.878876,280.036743 369.744232,278.509766 369.565186,276.479095 
	C345.917908,327.210266 331.054749,378.882294 339.989777,435.169708 
	C344.847931,430.699982 349.389252,426.139893 353.358429,421.126801 
	C374.469177,394.463745 384.479797,364.585846 378.759003,330.418610 
	C376.071960,314.370514 373.010834,298.385010 370.013519,281.563690 
M589.598633,478.798950 
	C588.868469,471.567993 588.138245,464.337006 587.338745,456.419586 
	C569.806152,503.428619 546.416382,546.713745 518.187927,588.378662 
	C530.911804,589.484863 542.161682,587.896973 552.725647,582.951660 
	C577.640808,571.287842 589.600342,550.777954 591.649475,524.031128 
	C592.784546,509.215607 591.642761,494.422760 589.598633,478.798950 
M706.423218,513.836243 
	C696.705872,559.352478 675.323669,598.995850 644.457825,634.656921 
	C657.173035,635.826050 668.269653,633.996338 678.735840,629.357483 
	C694.753906,622.257996 705.001465,609.284607 712.604370,594.052490 
	C723.022888,573.179260 723.727600,551.221619 719.172607,528.798279 
	C717.069336,518.444153 714.388123,508.256195 710.119629,497.742065 
	C708.813843,503.421600 707.709900,508.223236 706.423218,513.836243 
M308.225037,616.291870 
	C335.703430,632.629211 371.091919,622.981750 383.292297,609.696533 
	C367.075409,606.245056 351.964172,599.845276 337.368256,592.108704 
	C318.271393,581.986328 299.930420,570.423218 279.994171,561.904663 
	C274.502350,559.558044 269.041016,557.034973 262.028015,555.401489 
	C269.125031,565.590698 274.529572,575.302917 279.979279,584.999329 
	C286.893341,597.301025 295.213593,608.450500 308.225037,616.291870 
M695.556763,519.077515 
	C696.804321,514.269775 698.051880,509.462036 699.547791,503.697113 
	C692.810242,510.604980 686.692566,516.451416 680.212585,521.934387 
	C671.450256,529.348450 662.633301,536.698792 654.601440,544.945923 
	C639.133545,560.828369 630.889221,579.656738 631.000488,601.933716 
	C631.042419,610.324524 630.637024,618.781921 633.305237,628.353333 
	C662.601929,596.225037 682.530212,560.101746 695.556763,519.077515 
M561.006042,494.562256 
	C568.303955,480.519562 574.718262,466.070129 581.872192,450.422363 
	C566.801208,462.915497 551.045166,472.137451 538.364441,485.330261 
	C516.121033,508.472168 505.047729,535.829163 506.427307,567.991882 
	C506.595276,571.907715 506.890808,576.021240 509.112061,580.030212 
	C528.742310,552.814880 545.506470,524.506958 561.006042,494.562256 
M342.081329,323.678772 
	C346.603546,310.296936 352.755005,297.573883 358.614319,283.261963 
	C345.463257,296.622498 333.132050,308.950134 323.743347,323.756012 
	C313.494049,339.919067 307.270630,357.400513 306.865509,376.814911 
	C306.449738,396.739502 311.933716,414.575043 324.390778,430.190063 
	C325.469116,431.541718 326.305267,433.257202 328.788849,433.846436 
	C325.447479,396.206787 329.379822,359.786469 342.081329,323.678772 
M405.852356,506.460510 
	C406.740448,507.808044 407.324280,509.474213 410.023560,509.911163 
	C414.759857,486.477936 420.839050,463.395966 428.911926,440.898590 
	C437.004730,418.345703 447.431671,396.889435 459.998718,376.431946 
	C449.203125,386.608948 438.456360,396.751190 428.676575,407.845306 
	C420.510742,417.108582 412.932037,426.825928 407.561249,438.027588 
	C396.881622,460.301880 394.834442,482.895111 405.852356,506.460510 
M372.129303,739.320190 
	C380.323730,741.569885 388.598358,743.267212 397.083893,744.154968 
	C427.667419,747.354797 455.763702,741.521240 480.102020,721.776672 
	C488.911011,714.630371 496.418152,706.326660 502.437744,695.184082 
	C478.459045,710.007690 453.871002,720.357300 427.643646,726.637878 
	C401.230103,732.962952 374.550262,734.272156 346.349152,729.656860 
	C355.309509,733.752808 363.267517,736.591675 372.129303,739.320190 
M300.839661,555.768555 
	C294.747009,555.112976 288.654388,554.457397 282.561737,553.801819 
	C298.654694,559.774902 313.526184,567.936401 328.483398,575.878479 
	C343.493866,583.848694 358.623169,591.496765 375.079010,596.095337 
	C377.477478,596.765503 379.890289,597.898071 383.359711,597.217712 
	C359.374664,575.771851 333.588135,559.849121 300.839661,555.768555 
z"/>
</svg>