<svg version="1.1" id="Layer_1" xmlns="http://www.w3.org/2000/svg" xmlns:xlink="http://www.w3.org/1999/xlink" x="0px" y="0px"
	 width="100%" viewBox="0 0 496 800" enable-background="new 0 0 496 800" xml:space="preserve">
<path fill="#000000" opacity="1.000000" stroke="none" 
	d="
M172.114975,561.163696 
	C178.216782,559.117371 183.345886,555.992126 188.501984,552.943787 
	C195.197922,548.985107 202.493423,546.590332 210.057098,545.295959 
	C218.773529,543.804260 227.357697,541.869568 235.860809,539.493408 
	C237.240021,539.108032 238.944778,538.093262 239.977692,539.710938 
	C241.246445,541.697937 239.241470,542.693481 238.080048,543.724121 
	C232.853027,548.362549 227.771835,553.201416 222.246506,557.459961 
	C210.857864,566.237427 198.109161,569.212341 183.706070,566.878174 
	C165.127777,563.867310 149.346146,570.247681 137.568527,584.628601 
	C130.959061,592.699036 130.743469,603.528992 129.256409,613.539124 
	C127.460327,625.629395 128.716125,637.820557 128.358566,649.961121 
	C128.302536,651.863525 128.695114,653.885681 127.500565,655.597595 
	C125.046501,655.356628 125.132393,653.683472 125.045326,652.265564 
	C123.213539,622.434448 125.856323,593.565430 139.792526,566.209351 
	C144.360809,557.242004 149.866119,548.386597 151.801270,538.016418 
	C154.003128,526.216797 152.616241,514.677612 149.970276,503.361084 
	C144.167862,478.544678 151.902756,457.423431 166.397339,437.867554 
	C168.196823,435.439758 168.357101,435.482086 171.483292,434.529663 
	C172.718826,436.553223 171.254211,438.090302 170.336716,439.501923 
	C164.175461,448.981384 164.415482,459.347168 165.887604,469.916016 
	C166.621857,475.187439 167.287277,480.469086 168.080124,485.731598 
	C170.139008,499.397369 166.150208,511.735687 159.962524,523.638550 
	C157.420105,528.529358 156.483994,533.899597 155.250229,540.056946 
	C164.244202,530.488403 169.465424,519.377563 176.589157,509.586792 
	C191.592560,488.966187 202.482986,466.260468 209.227646,441.574646 
	C213.923813,424.386444 212.107407,407.681061 207.063995,390.907104 
	C200.479141,369.006378 205.553772,349.120758 218.715744,330.990692 
	C220.982193,327.868774 223.473450,324.596680 227.945160,324.013733 
	C228.166534,324.701599 228.585037,325.322052 228.422058,325.593842 
	C222.316620,335.775757 224.993378,346.580200 226.188354,357.248627 
	C227.823502,371.846741 225.733963,386.133240 222.778366,400.349274 
	C217.087738,427.720245 211.528458,455.135529 198.916794,480.509949 
	C210.012939,468.355072 222.050003,457.378632 225.184174,439.616150 
	C228.240952,422.292297 229.746231,405.071136 230.060593,387.538330 
	C230.389526,369.192139 237.148758,353.123291 250.866257,340.466217 
	C253.409683,338.119415 256.051178,335.380402 259.959930,335.988739 
	C260.820557,337.542358 260.239380,338.387970 259.395630,338.982971 
	C254.167953,342.669586 252.546844,348.011383 253.256790,353.922913 
	C256.423004,380.286896 248.133667,404.261688 238.193024,427.919769 
	C236.016632,433.099396 233.715240,438.226440 231.409058,443.520874 
	C233.466232,443.906342 234.001984,442.402557 234.829575,441.569855 
	C250.838623,425.462250 265.857513,408.504456 277.510651,388.908691 
	C288.130615,371.050262 291.767029,351.471863 290.331879,330.880829 
	C289.633270,320.858002 286.626404,311.265564 284.524506,301.508881 
	C281.885681,289.260071 281.645355,277.155579 285.348846,265.014374 
	C288.868561,253.475845 293.418335,242.186081 293.641205,229.643600 
	C297.083038,230.237213 296.992554,232.267807 296.843231,233.949341 
	C295.961304,243.881500 299.414001,252.826492 302.323669,262.084198 
	C309.324005,284.356903 311.335022,306.798676 301.163147,328.882812 
	C298.546234,334.564392 294.065796,339.473358 294.229004,346.289093 
	C294.376740,352.460205 292.860077,358.424103 290.889496,365.768707 
	C294.289215,362.732758 295.338989,359.936768 296.647217,357.399384 
	C308.726715,333.969910 319.159302,309.831451 327.536987,284.826263 
	C332.421356,270.247711 334.336456,255.681824 327.461182,241.066666 
	C319.307495,223.733826 319.206177,206.130478 325.470215,188.128357 
	C329.184479,177.453995 332.981628,166.764221 335.286682,155.642868 
	C335.401093,155.090927 335.998169,154.639023 336.301147,154.233398 
	C337.753204,154.451660 338.188049,155.362778 338.397369,156.362320 
	C341.962280,173.386612 350.157349,188.937088 354.107300,205.843491 
	C357.324615,219.614014 357.381714,233.540314 350.086761,245.673752 
	C337.000275,267.440094 329.500885,291.393860 320.309418,314.736328 
	C310.526855,339.579956 298.430542,363.317078 283.873840,385.752411 
	C283.097382,386.949127 282.417053,388.208221 281.010315,390.594727 
	C287.344482,386.500671 291.769287,382.400177 295.545227,377.512726 
	C303.394928,367.352417 310.634583,356.787903 317.383759,345.863098 
	C328.459503,327.934784 343.016235,313.167419 359.428497,300.109344 
	C364.910614,295.747650 370.097260,291.058594 373.924774,285.076721 
	C374.484619,284.201752 375.181244,283.483521 376.451691,284.075348 
	C377.674072,285.283203 376.929565,286.575226 376.264252,287.650421 
	C371.914825,294.679504 369.726532,302.589996 367.092529,310.291473 
	C360.033447,330.931274 346.408386,346.445740 329.638702,359.762756 
	C313.077911,372.913910 294.549774,383.432037 279.054260,398.009979 
	C271.370667,405.238495 265.226227,413.761047 258.216705,421.545990 
	C249.983444,430.690002 241.550430,439.654114 233.393402,448.939178 
	C245.574677,443.489868 256.941010,436.562317 266.950287,427.933929 
	C288.749664,409.142029 313.912994,398.602386 342.216766,394.916473 
	C348.178192,394.140137 353.997040,392.735229 359.608246,390.542542 
	C360.859253,390.053711 362.085876,389.476776 363.266144,390.494690 
	C363.984436,392.031403 363.033295,392.876190 362.025208,393.413879 
	C350.749969,399.427765 341.681610,408.430664 331.494751,415.914917 
	C313.197693,429.357788 292.397766,436.365875 270.318024,440.263275 
	C249.297226,443.973755 230.189407,452.082153 215.436829,467.771484 
	C200.849884,483.284698 187.923065,500.276276 175.135437,517.656494 
	C183.203445,515.347961 189.176956,511.507294 197.215271,505.222107 
	C211.916687,493.727020 228.251556,485.340546 246.378098,480.479858 
	C256.694458,477.713470 267.109283,475.554565 277.673401,474.106506 
	C280.843536,473.671936 284.173248,472.824829 287.008148,474.662994 
	C287.368713,475.993744 287.004395,476.741730 286.266571,477.214447 
	C268.662506,488.493835 252.441650,502.159912 231.652695,507.873627 
	C220.680603,510.889221 209.515305,512.527039 198.304718,514.137268 
	C182.872208,516.353882 171.075867,523.273132 162.332245,537.154480 
	C155.513672,547.979553 148.331192,558.549683 142.486115,569.960571 
	C141.753006,571.391846 141.149521,572.889465 139.993851,575.444275 
	C150.447876,568.482239 160.856277,564.323425 172.114975,561.163696 
M332.381195,179.805252 
	C328.427765,192.491287 323.742828,204.970978 325.314545,218.745880 
	C326.846344,232.170547 334.311096,243.728409 336.255737,258.415497 
	C341.140350,243.246841 340.705994,229.366913 339.226471,215.390381 
	C338.688812,210.311478 336.649536,205.235046 339.164246,200.021576 
	C343.822632,216.568237 345.273285,233.348816 342.542938,250.548981 
	C347.858124,243.183609 350.868469,235.034790 351.634308,226.196167 
	C353.498810,204.678513 342.578644,186.319931 336.931671,165.267227 
	C335.212891,170.819366 333.937561,174.939041 332.381195,179.805252 
M310.565308,362.979553 
	C309.323364,364.824127 308.081421,366.668732 306.128357,369.569489 
	C311.756927,365.857880 315.331329,361.888000 319.037842,358.090820 
	C322.640808,354.399719 325.999481,350.471161 329.571075,346.748230 
	C333.036560,343.135895 335.274139,338.254303 340.320038,336.148682 
	C335.717499,345.156982 329.026489,352.503632 322.450256,359.935638 
	C346.312531,343.635986 359.876160,324.828583 367.749756,297.433136 
	C365.218964,299.577057 362.694855,301.728912 360.156158,303.863495 
	C348.149750,313.958740 336.587891,324.512878 327.552856,337.459320 
	C321.841217,345.643646 316.482452,354.074219 310.565308,362.979553 
M290.345062,415.840576 
	C280.301178,422.342224 270.980164,429.810760 260.907990,437.592926 
	C294.072845,433.586121 322.858398,421.962708 346.444031,398.575745 
	C332.592834,399.501129 305.568237,406.014038 290.345062,415.840576 
M297.201538,286.422516 
	C300.030273,299.556580 297.702759,312.796997 297.614716,325.991211 
	C307.980560,306.745941 304.286530,271.791779 293.940826,251.828400 
	C284.759338,273.937103 284.658936,301.447083 293.791473,320.950012 
	C295.296783,306.606079 295.718018,292.526917 292.186646,278.578400 
	C291.807220,277.079712 291.018616,275.258423 293.717346,274.410004 
	C296.229858,277.704498 296.292023,281.752930 297.201538,286.422516 
M276.585236,478.458771 
	C276.633026,477.658325 276.092346,477.756226 275.598663,477.831879 
	C260.951569,480.076294 246.604019,483.549042 232.697418,488.678101 
	C229.286560,489.936096 226.102020,491.825958 222.856079,493.507629 
	C219.673538,495.156433 216.545303,496.910095 213.393234,498.617706 
	C225.070740,494.819580 236.183380,489.854523 248.320831,487.800690 
	C232.769684,495.379425 216.156555,500.523621 201.748291,509.780334 
	C230.111435,508.337097 254.137894,495.880463 276.585236,478.458771 
M235.371155,375.042053 
	C233.591537,383.564240 234.212265,392.171967 234.228149,401.585449 
	C237.873688,389.609131 236.708206,377.073944 243.599564,366.573608 
	C245.779404,368.107941 245.479706,369.345947 245.047592,370.383301 
	C241.414383,379.105255 240.705963,388.466492 238.951385,397.603485 
	C237.634613,404.460449 238.149185,411.949097 234.938477,418.071777 
	C232.020966,423.635315 231.773560,429.403595 230.295898,435.066833 
	C244.223206,413.000702 251.846680,376.812714 248.896530,347.561646 
	C241.964355,355.291199 238.651199,364.707367 235.371155,375.042053 
M214.393784,345.882446 
	C207.408875,361.264526 206.984344,376.929779 212.511841,392.844147 
	C212.941940,386.790710 212.460327,380.676453 213.078247,374.675415 
	C213.688568,368.748291 213.365799,362.209015 219.169083,357.785004 
	C215.433456,373.106903 215.538254,388.445312 217.422256,404.134186 
	C222.784424,387.810211 223.791077,365.035156 220.518112,334.266022 
	C218.440262,338.150360 216.559448,341.666382 214.393784,345.882446 
M155.217072,510.530396 
	C155.358368,511.132385 155.499649,511.734375 155.985687,513.805237 
	C156.674393,504.746124 153.845886,496.896576 157.561081,489.550507 
	C159.915222,497.413940 158.680328,505.522278 159.819214,514.089172 
	C161.606415,512.078186 162.177643,510.275208 162.812775,508.436005 
	C165.043365,501.976807 164.843536,495.384583 164.392242,488.698120 
	C163.601761,476.986053 160.388031,465.509613 161.120712,453.156830 
	C158.095352,457.889832 156.078888,462.550751 154.519455,467.438965 
	C149.987061,481.646179 152.546158,495.746216 155.217072,510.530396 
M187.827194,558.535706 
	C193.236267,560.200989 198.408432,554.878723 204.849548,557.587219 
	C200.673233,561.061890 196.175140,561.031311 192.274170,562.789673 
	C205.411285,563.823059 224.202362,554.850830 228.386902,545.634460 
	C222.858490,546.685852 217.285461,547.547241 211.812027,548.832642 
	C203.418869,550.803772 194.902863,552.569946 187.827194,558.535706 
z"/>
<path fill="#000000" opacity="1.000000" stroke="none" 
	d="
M284.581360,425.490479 
	C297.244049,419.511475 309.157379,412.833221 321.775238,407.626984 
	C322.359772,407.385803 323.092224,407.728790 323.725983,409.693115 
	C306.777985,418.367249 289.609558,427.057434 271.520416,434.011749 
	C274.726654,429.547424 279.883209,428.211121 284.581360,425.490479 
z"/>
</svg>