<svg version="1.1" id="Layer_1" xmlns="http://www.w3.org/2000/svg" xmlns:xlink="http://www.w3.org/1999/xlink" x="0px" y="0px"
	 width="100%" viewBox="0 0 608 608" enable-background="new 0 0 608 608" xml:space="preserve">
<path fill="#000000" opacity="1.000000" stroke="none" 
	d="
M290.906189,511.330017 
	C289.547211,509.230103 287.614868,508.542267 285.859009,507.615417 
	C259.739471,493.828064 239.960602,473.767639 226.420731,447.538269 
	C224.580933,443.974213 223.126801,440.256439 222.226562,436.337097 
	C220.720627,429.780884 223.946732,426.094360 230.537369,427.377289 
	C241.324570,429.477051 251.045166,434.232056 259.965637,440.530060 
	C269.869812,447.522614 277.997650,456.275604 284.600739,466.452881 
	C285.469971,467.792664 286.125580,469.435333 288.005798,469.981567 
	C289.895203,468.344025 289.625793,466.102997 289.634766,464.003662 
	C289.678925,453.682007 289.654572,443.360107 289.678436,433.038330 
	C289.695862,425.497437 286.935333,419.979858 280.137329,415.737122 
	C259.212036,402.677368 241.703140,386.036896 229.454926,364.326202 
	C225.639236,357.562653 223.520218,350.237885 222.530899,342.573853 
	C221.793167,336.858948 223.585037,335.644806 228.984039,337.694000 
	C242.576614,342.853180 254.000320,351.329651 265.338562,360.206696 
	C275.188110,367.918152 282.719696,377.083282 287.724152,388.449432 
	C288.125519,389.360992 288.618927,390.235474 289.121552,391.096863 
	C289.273071,391.356567 289.600189,391.513794 290.160095,391.977203 
	C292.072144,385.761810 291.973755,379.415588 292.460571,373.274994 
	C294.092896,352.685333 297.489410,332.381805 301.334503,312.134979 
	C303.176117,302.437836 301.121094,294.786957 293.485840,287.532440 
	C272.733276,267.814636 262.471100,242.660629 258.658844,214.631882 
	C257.578613,206.689789 256.961792,198.752716 258.594574,190.790436 
	C260.064209,183.623718 261.516968,182.917557 267.884644,186.776474 
	C290.997498,200.783218 303.575775,221.962082 309.287720,247.788177 
	C309.466980,248.598831 309.579529,249.424561 309.768433,250.232666 
	C309.987793,251.171234 310.257111,252.098129 310.733368,253.890732 
	C313.896393,245.607864 316.681091,237.986282 319.715363,230.465424 
	C322.580444,223.364059 325.777039,216.397141 328.701447,209.318863 
	C331.908081,201.557449 326.350128,194.975418 325.444702,187.727707 
	C322.531219,164.406296 327.576385,142.706940 337.122314,121.762093 
	C341.052246,113.139359 344.960907,104.443932 350.626953,96.740723 
	C352.718506,93.897156 354.986603,90.949913 359.089691,91.605522 
	C363.299133,92.278130 364.366791,95.947655 365.212738,99.315819 
	C371.363281,123.804939 373.074280,148.267258 363.527863,172.357651 
	C358.558777,184.897110 349.405487,194.429291 339.770416,203.484924 
	C337.798706,205.338043 336.201996,207.286728 334.980865,209.749756 
	C323.909027,232.081802 315.152283,255.199493 310.887299,279.857056 
	C310.165405,284.030487 309.807251,288.266785 309.905151,292.655579 
	C313.396393,288.107544 318.292969,284.738617 316.831085,277.508209 
	C314.441589,265.690002 319.805756,255.581329 326.448883,246.533798 
	C333.266602,237.248474 342.948669,231.581940 354.293121,229.228073 
	C367.299500,226.529358 374.527710,234.329575 369.784088,246.692245 
	C362.515076,265.636597 350.282440,280.119202 329.560394,284.955811 
	C322.615112,286.576935 318.058929,290.128357 314.638031,296.118805 
	C308.751862,306.426117 304.813141,317.173737 306.268341,329.823090 
	C307.719360,327.797668 309.164520,325.767975 310.622314,323.747437 
	C328.497437,298.971924 350.601685,279.648834 380.133026,269.943237 
	C387.960388,267.370758 392.757935,271.161499 392.184418,279.475342 
	C391.883301,283.840729 390.511230,287.978180 388.647614,291.903229 
	C373.765747,323.246735 350.949921,345.134308 316.124329,352.755585 
	C302.606628,355.713837 298.956360,360.296265 297.380829,375.838318 
	C295.511902,394.274719 296.213531,412.770935 296.193329,431.249207 
	C296.192505,432.013092 296.423279,432.777222 296.639221,434.120209 
	C300.798737,430.308533 304.253448,427.290833 302.325806,421.194153 
	C300.706329,416.072235 302.638458,410.935059 304.831207,406.228790 
	C308.991241,397.300171 315.407715,390.006500 322.993042,383.939178 
	C332.478333,376.352112 344.081116,378.284454 349.102417,387.851105 
	C352.126434,393.612488 350.728485,399.358215 347.860352,404.578583 
	C340.484222,418.004150 328.411469,425.212524 313.984833,428.877869 
	C303.916473,431.435883 295.577484,441.769470 295.262085,452.113556 
	C294.616150,473.297882 295.849915,494.355774 299.040558,515.305054 
	C299.189545,516.283386 299.271423,517.317932 299.121033,518.285400 
	C298.872040,519.887085 298.838928,521.855286 296.744202,522.217224 
	C294.655853,522.578064 293.780457,520.915222 293.250336,519.316956 
	C292.415741,516.800842 291.806213,514.210022 290.906189,511.330017 
M325.553162,260.505310 
	C323.919037,263.792511 322.448059,267.135071 322.278381,270.880280 
	C321.974426,277.589325 325.449829,280.663086 331.815216,278.784485 
	C349.715607,273.501648 358.736267,259.727020 364.748291,243.377487 
	C366.631561,238.255997 364.301819,235.241043 358.892151,236.397400 
	C344.606445,239.451111 332.045837,245.354156 325.999725,260.012390 
	C325.999725,260.012390 326.028015,259.981018 325.553162,260.505310 
M332.516602,306.031647 
	C319.135498,317.949738 310.578125,330.301147 309.283966,339.566254 
	C315.904968,333.868347 321.018188,326.324280 329.789764,323.004608 
	C327.272461,333.218109 316.411713,337.182465 312.193848,346.175964 
	C314.181702,346.920593 315.803619,346.538696 317.453308,346.324158 
	C335.328522,343.999603 349.608459,334.889130 361.841522,322.303223 
	C372.389038,311.451508 381.160156,299.346924 385.152039,284.406647 
	C385.879944,281.682312 386.654419,278.633972 384.261932,276.401306 
	C381.790100,274.094635 379.196228,276.008881 376.847412,277.066528 
	C360.780334,284.301300 346.150757,293.767395 332.516602,306.031647 
M278.746094,259.772675 
	C284.410248,269.071198 290.991791,277.525055 300.445435,284.596161 
	C302.165619,270.975250 293.778748,260.258911 294.946228,247.828781 
	C303.259552,253.543167 301.239563,263.888947 305.227692,271.889404 
	C313.216431,246.811600 281.562286,195.562393 264.207520,193.030701 
	C261.413483,216.753891 266.762115,238.590622 278.746094,259.772675 
M356.117493,100.883072 
	C335.104279,128.230652 326.515930,158.552765 334.005249,192.750732 
	C341.891327,177.437698 343.718323,160.144516 349.471375,143.731323 
	C353.556824,146.132095 353.226807,149.086060 352.779907,152.061584 
	C351.339050,161.655624 347.917664,170.698181 345.073883,179.906281 
	C343.844177,183.887970 341.868225,187.736145 341.967560,192.680328 
	C346.275116,189.836044 349.212555,186.515396 351.703369,182.798019 
	C363.923370,164.560486 365.879639,144.113922 364.236328,122.995979 
	C363.708160,116.208458 362.438782,109.470596 359.916748,103.081116 
	C359.379425,101.719818 359.574005,98.865639 356.117493,100.883072 
M270.966217,458.535950 
	C264.363861,451.428711 257.013885,445.216888 248.797348,440.046051 
	C244.406281,437.282623 239.773453,435.076843 234.677078,433.932953 
	C229.116974,432.684937 227.251724,434.400879 228.685425,439.707703 
	C229.287704,441.937073 230.155502,444.154816 231.267700,446.177032 
	C242.383850,466.388794 257.874146,482.611298 276.793671,495.641602 
	C278.614807,496.895844 280.588470,498.172424 283.639984,498.261932 
	C280.466553,489.367981 272.622925,483.278168 271.101196,472.966675 
	C280.579468,478.290649 282.475342,488.480499 289.902466,495.651886 
	C289.307648,479.646698 280.345337,469.365784 270.966217,458.535950 
M285.725464,400.990448 
	C285.224884,397.663635 284.149200,394.500610 282.620483,391.536438 
	C271.955963,370.857971 255.416397,356.527649 234.364334,347.130737 
	C233.058456,346.547852 231.714447,345.689453 229.191605,346.766418 
	C236.980743,373.241913 255.024551,390.998108 277.306091,405.351471 
	C274.672791,399.935028 270.215027,395.581879 268.548248,387.977570 
	C277.070007,391.640900 280.633484,398.603577 286.164032,404.411285 
	C285.980621,402.911469 285.901520,402.264496 285.725464,400.990448 
M330.057159,415.569244 
	C332.287262,413.835785 334.700256,412.289948 336.710266,410.330719 
	C341.190674,405.963623 344.900635,401.065582 344.991058,394.404816 
	C345.074554,388.254517 339.685394,383.989868 333.911896,386.118011 
	C320.566528,391.037170 311.786835,400.540710 307.920837,414.222229 
	C306.211090,420.272797 310.250092,423.757355 316.464294,422.151001 
	C321.194489,420.928223 325.457520,418.726074 330.057159,415.569244 
z"/>
<path fill="#000000" opacity="1.000000" stroke="none" 
	d="
M325.988434,260.030396 
	C330.672089,253.650345 336.566650,248.715469 343.840393,245.490982 
	C345.335724,244.828094 347.169189,243.900055 348.192963,245.880432 
	C349.058044,247.553818 348.061401,249.222183 346.559692,250.134003 
	C340.573853,253.768448 335.538269,258.585297 330.153656,262.974762 
	C327.338684,265.269531 325.553955,264.789093 325.980469,260.344360 
	C326.028015,259.981018 325.999725,260.012390 325.988434,260.030396 
z"/>
<path fill="#000000" opacity="1.000000" stroke="none" 
	d="
M310.701416,412.932312 
	C312.641602,408.223358 315.439484,404.583801 318.969330,401.503693 
	C319.960754,400.638611 321.181946,399.701935 322.489777,400.733246 
	C323.704773,401.691315 323.615540,403.318970 322.846832,404.352814 
	C319.353210,409.051270 315.681244,413.617096 312.137360,418.148834 
	C309.207123,416.809967 310.111420,415.003632 310.701416,412.932312 
z"/>
</svg>