<?xml version="1.0" standalone="no"?>
<!DOCTYPE svg PUBLIC "-//W3C//DTD SVG 20010904//EN"
 "http://www.w3.org/TR/2001/REC-SVG-20010904/DTD/svg10.dtd">
<svg version="1.0" xmlns="http://www.w3.org/2000/svg"
 width="1242.000000pt" height="1280.000000pt" viewBox="0 0 1242.000000 1280.000000"
 preserveAspectRatio="xMidYMid meet">
<metadata>
Created by potrace 1.15, written by Peter Selinger 2001-2017
</metadata>
<g transform="translate(0.000000,1280.000000) scale(0.100000,-0.100000)"
fill="#000000" stroke="none">
<path d="M4800 12797 c0 -2 -7 -54 -15 -117 -8 -62 -14 -114 -12 -115 1 -1 45
-8 96 -14 335 -42 805 -161 1158 -292 625 -233 1223 -579 1728 -999 681 -566
1216 -1268 1560 -2045 272 -614 430 -1255 486 -1965 14 -185 14 -652 0 -840
-75 -964 -355 -1824 -848 -2610 -377 -599 -884 -1128 -1438 -1497 -603 -402
-1246 -641 -1965 -729 -205 -26 -688 -26 -885 -1 -362 46 -703 136 -1011 267
-891 379 -1535 1125 -1718 1990 -43 206 -51 284 -51 525 1 229 6 281 45 470
129 616 530 1185 1066 1517 401 248 856 361 1359 337 93 -4 171 -6 173 -4 9 9
-173 20 -328 19 -195 -1 -305 -12 -490 -50 -265 -55 -569 -179 -790 -324 -631
-415 -1041 -1120 -1078 -1854 -33 -657 171 -1268 602 -1806 81 -101 282 -306
386 -394 731 -620 1779 -905 2828 -771 1258 162 2393 850 3204 1945 584 788
957 1744 1072 2745 41 359 50 855 21 1195 -148 1742 -982 3248 -2369 4278
-306 226 -579 393 -936 571 -579 288 -1163 471 -1807 565 -24 3 -43 5 -43 3z"/>
<path d="M10753 10229 c-295 -16 -439 -74 -656 -264 -124 -108 -242 -254 -330
-407 -15 -26 -27 -50 -27 -55 0 -5 96 -19 213 -31 468 -50 757 -90 757 -103 0
-10 -173 -95 -627 -309 -156 -73 -283 -136 -283 -141 0 -16 94 -87 310 -232
284 -190 327 -211 441 -215 343 -14 949 343 1732 1021 l138 120 -57 51 c-214
192 -414 317 -661 415 -307 121 -606 168 -950 150z"/>
<path d="M8160 9481 c-344 -78 -697 -278 -971 -551 -202 -201 -327 -388 -444
-661 l-33 -76 111 -36 c1002 -323 1775 -423 2080 -271 71 36 128 99 223 250
106 168 229 379 248 426 l15 36 -122 6 c-67 3 -268 10 -447 16 -344 11 -460
18 -460 29 0 10 257 166 562 342 147 85 267 156 267 159 1 12 -221 153 -304
194 -272 133 -528 181 -725 137z"/>
<path d="M3736 7983 c-67 -230 -52 -470 46 -729 70 -187 140 -281 274 -370 74
-49 230 -122 240 -112 2 2 -19 76 -46 163 -59 189 -90 295 -85 295 4 0 113
-114 195 -205 133 -146 152 -166 158 -160 10 9 41 236 41 300 1 96 -46 179
-178 319 -127 133 -333 303 -558 460 -69 48 -82 54 -87 39z"/>
<path d="M4553 6663 c9 -2 25 -2 35 0 9 3 1 5 -18 5 -19 0 -27 -2 -17 -5z"/>
<path d="M4618 6653 c6 -2 18 -2 25 0 6 3 1 5 -13 5 -14 0 -19 -2 -12 -5z"/>
<path d="M4678 6643 c6 -2 18 -2 25 0 6 3 1 5 -13 5 -14 0 -19 -2 -12 -5z"/>
<path d="M4620 6548 c0 -6 23 -109 51 -230 27 -121 49 -227 47 -235 -2 -11
-248 285 -289 349 -14 20 -26 -5 -46 -92 -26 -115 -22 -267 9 -355 63 -180
233 -402 412 -537 81 -61 264 -158 300 -158 18 0 19 8 12 218 -14 417 -47 632
-122 789 -41 85 -57 99 -219 185 -140 75 -155 81 -155 66z"/>
<path d="M990 6049 c-240 -15 -530 -54 -827 -111 l-162 -31 26 -51 c129 -257
372 -500 666 -667 119 -67 306 -147 427 -182 152 -44 398 -22 590 53 126 49
232 110 192 110 -18 0 -618 335 -627 350 -8 13 28 13 427 -6 187 -8 342 -13
344 -11 9 9 -229 340 -295 410 -73 78 -195 119 -408 137 -131 11 -171 11 -353
-1z"/>
<path d="M7786 6030 c-194 -23 -391 -73 -555 -142 -53 -22 -100 -44 -105 -49
-10 -9 154 -242 312 -444 284 -363 564 -640 785 -773 31 -18 88 -45 129 -59
62 -22 84 -25 148 -20 107 8 619 156 626 182 2 6 -88 82 -198 170 -110 88
-258 207 -327 265 -124 104 -126 105 -93 108 36 4 174 -16 560 -79 134 -21
245 -39 247 -39 8 0 -37 146 -66 214 -64 152 -192 335 -288 413 -124 101 -371
193 -641 238 -113 19 -422 27 -534 15z"/>
<path d="M2595 5485 c-144 -44 -312 -103 -342 -119 -23 -12 -12 -20 254 -194
153 -99 300 -197 328 -216 l50 -36 -38 0 c-39 0 -386 39 -591 66 -60 7 -111
12 -113 10 -8 -8 87 -174 144 -250 86 -116 224 -244 309 -288 178 -93 487
-157 754 -158 250 0 485 48 679 141 l104 49 -104 106 c-57 57 -105 109 -107
113 -6 16 -396 378 -502 466 -117 96 -312 231 -399 275 -161 81 -254 88 -426
35z"/>
<path d="M10275 5168 c-49 -3 -115 -11 -145 -17 -83 -17 -251 -65 -248 -71 2
-3 82 -81 178 -172 291 -275 406 -390 394 -394 -11 -5 -283 56 -648 146 -114
28 -211 48 -214 45 -14 -13 123 -467 164 -546 59 -115 200 -193 464 -258 281
-68 611 -99 1148 -108 l373 -6 -5 34 c-37 230 -72 342 -157 509 -137 270 -329
486 -592 664 -201 136 -305 172 -522 178 -55 2 -140 0 -190 -4z"/>
<path d="M6092 4441 c-13 -32 -8 -920 6 -1041 43 -383 121 -640 229 -760 54
-60 130 -100 369 -194 218 -85 292 -111 301 -103 3 4 -33 174 -81 379 -97 421
-102 448 -89 448 10 0 184 -180 446 -463 l138 -147 20 47 c65 153 93 299 94
488 0 138 -2 157 -28 236 -64 195 -272 478 -490 667 -240 208 -505 350 -805
432 -93 25 -104 26 -110 11z"/>
<path d="M4940 3641 c-607 -214 -1015 -419 -1227 -615 -83 -77 -129 -144 -149
-218 -17 -65 -33 -571 -17 -581 5 -3 140 81 299 187 159 106 311 205 337 221
l48 28 -16 -39 c-9 -22 -88 -179 -175 -351 -88 -172 -160 -315 -160 -319 0
-10 182 5 278 22 102 18 260 71 340 114 199 106 439 453 552 800 68 206 85
315 85 550 0 194 -6 261 -23 259 -4 0 -81 -26 -172 -58z"/>
<path d="M7810 2153 c0 -5 9 -62 20 -128 25 -159 77 -523 86 -605 l7 -65 -23
20 c-13 11 -138 164 -278 340 -140 176 -259 324 -263 329 -11 12 -56 -87 -129
-284 -108 -290 -112 -339 -35 -496 145 -298 595 -741 1256 -1237 l36 -27 61
118 c113 218 160 402 169 663 8 239 -18 423 -92 646 -69 206 -148 327 -287
440 -145 118 -280 198 -443 263 -83 33 -85 33 -85 23z"/>
<path d="M2918 1819 c-105 -11 -156 -36 -240 -116 -140 -135 -306 -427 -462
-816 -84 -208 -252 -694 -243 -703 13 -14 191 -26 302 -21 360 16 719 162
1025 416 170 142 245 264 310 506 31 118 60 395 41 395 -4 0 -124 -66 -267
-146 -289 -163 -394 -218 -401 -210 -6 6 -14 -7 224 377 100 163 186 304 189
313 6 14 -14 16 -197 15 -112 -1 -239 -5 -281 -10z"/>
</g>
</svg>
